<svg id="Layer_1" enable-background="new 0 0 64 64" height="512" viewBox="0 0 64 64" width="512" xmlns="http://www.w3.org/2000/svg"><g><g><path d="m34.063 3.5c-7.18 0-13 5.82-13 13v23h14v-4h5c3.866 0 7-3.134 7-7v-12c0-7.18-5.82-13-13-13z" fill="#eec78e"/></g><g><path d="m35.063 39.5h-14c0-2.209 1.791-4 4-4h10z" fill="#db9e68"/></g><g><path d="m47.063 61.5h-26v-22h20c3.314 0 6 2.686 6 6z" fill="#dbdee3"/></g><g><path d="m34.063 39.5h-3c2.209 0 4 1.791 4 4v18h3v-18c0-2.209-1.79-4-4-4z" fill="#f68820"/></g><g><path d="m41.063 39.5h-4.5c2.209 0 4 1.791 4 4v2c0 2.209-1.791 4-4 4s-4-1.791-4-4v-2c0-2.209-1.791-4-4-4h-7.5c-3.314 0-6 2.686-6 6v16h32v-16c0-3.314-2.686-6-6-6z" fill="#5c76b2"/></g><g><path d="m15.063 61.5h12v-16c0-3.314-2.686-6-6-6-3.314 0-6 2.686-6 6z" fill="#dbdee3"/></g><g><circle cx="44.063" cy="20.5" fill="#55525b" r="1"/></g><g><circle cx="38.063" cy="20.5" fill="#55525b" r="1"/></g><g><path d="m43.063 29.5c-1.105 0-2-.895-2-2v-5c2.209 0 4 1.791 4 4v1c0 1.105-.895 2-2 2z" fill="#db9e68"/></g><g><path d="m41.063 33c1.105 0 2-.895 2-2h-4c0 1.105.896 2 2 2z" fill="#55525b"/></g><g><path d="m48.92 15.435c-.956-6.942-6.663-12.358-13.733-12.883-.371-.032-.745-.052-1.124-.052-8.284 0-15 6.716-15 15v22h6c2.209 0 4-1.791 4-4v-16c2.761 0 5-2.239 5-5 0 1.657 1.343 3 3 3h10.02c1.101-.001 1.987-.975 1.837-2.065z" fill="#55525b"/></g><g><path d="m35.861 2.632c-5.242 2.891-8.798 8.457-8.798 14.868v6h2v-6c0-6.534 4.184-12.075 10.015-14.127-1.025-.364-2.103-.608-3.217-.741z" fill="#5c76b2"/></g><g><path d="m29.063 19.5c-2.209 0-4 1.791-4 4s1.791 4 4 4z" fill="#db9e68"/></g></g></svg>
